<svg xmlns="http://www.w3.org/2000/svg" viewBox="799 1002 31.677 33.709">
  <defs>
    <style>
      .cls-1 {
        fill: #f9c21f;
        fill-rule: evenodd;
      }
    </style>
  </defs>
  <g id="Group_15" data-name="Group 15" transform="translate(799 1002)">
    <path id="Path_16" data-name="Path 16" class="cls-1" d="M8.906-15.739C2.571-21.687,2.3-26.885,2.3-26.885l-.01-1.269a1.262,1.262,0,0,1,1.272-1.355,1.289,1.289,0,0,0,1.33,1.33s1.01-.055,1.405-.016c-.059,4.267,1.143,10.039,2.606,12.456m16.2-12.682c.393-.038,1.4.016,1.4.016a1.288,1.288,0,0,0,1.33-1.328,1.26,1.26,0,0,1,1.272,1.353L29.1-27.111s-.266,5.2-6.6,11.147c1.462-2.418,2.666-8.189,2.607-12.457m-4.624,17.8C32.143-17.978,31.674-27.1,31.674-27.1v-1.361a2.5,2.5,0,0,0-2.515-2.62l-1.38.014c-1.238,0-1.263,1.323-1.263,1.323H25.08c-.025-.837.032-3.924.032-3.924-11.363,1.632-18.494-.041-18.494-.041l-.025,3.965H5.366S5.34-31.068,4.1-31.068l-1.379-.014A2.738,2.738,0,0,0,0-28.462V-27.1s-.221,9.123,11.437,16.483a4.734,4.734,0,0,0,3.1,1.364v1.363s-1.279-.133-1.279.62c0,.823,1.32.661,1.32.661v1.487s-.287,1.156-1.2,1.156c0,1.24-1.445,1.323-1.445,1.323S10.61-2.4,10.61-1.323c0,0-.171,1.323,1.363,1.323,1.952,0,7.779-.008,7.779-.008a1.415,1.415,0,0,0,1.392-1.315,1.294,1.294,0,0,0-1.321-1.321,1.383,1.383,0,0,1-1.4-1.364,1.11,1.11,0,0,1-1.242-1.2V-6.652s1.324.311,1.324-.619c0-.779-1.324-.62-1.324-.62V-9.254a4.692,4.692,0,0,0,3.306-1.364" transform="translate(0 33.709)"/>
  </g>
</svg>
