<svg xmlns="http://www.w3.org/2000/svg" viewBox="1438.165 976.681 81.637 84.08">
  <defs>
    <style>
      .cls-1 {
        fill: #fff;
        stroke: #95989a;
      }
    </style>
  </defs>
  <g id="Group_7" data-name="Group 7" transform="translate(1438.665 977.277)">
    <path id="Path_1" data-name="Path 1" class="cls-1" d="M40.344-336.251l-.228-.039C39.714-336.36,0-343.716,0-383.955a52.775,52.775,0,0,1,10.394-31.961l.552-.723.84.35a29.952,29.952,0,0,0,11.556,2.3,30.007,30.007,0,0,0,16.335-4.821l.643-.417.641.416A30.007,30.007,0,0,0,57.3-413.99a29.928,29.928,0,0,0,11.555-2.3l.84-.35.553.723a52.782,52.782,0,0,1,10.394,31.961c0,38.446-39.665,47.567-40.065,47.655ZM11.736-413.767a50.583,50.583,0,0,0-9.373,29.812c0,37.078,34.43,44.626,37.924,45.3,3.133-.777,37.988-10.236,37.988-45.3A50.574,50.574,0,0,0,68.9-413.767a32.271,32.271,0,0,1-11.6,2.14,32.346,32.346,0,0,1-16.977-4.8,32.347,32.347,0,0,1-16.977,4.8A32.282,32.282,0,0,1,11.736-413.767Z" transform="translate(0 419.226)"/>
  </g>
</svg>
